<svg width="391" height="188" xmlns="http://www.w3.org/2000/svg" xmlns:xlink="http://www.w3.org/1999/xlink">
  <defs>
    <filter x="-44%" y="-38.3%" width="188.1%" height="176.6%" filterUnits="objectBoundingBox" id="a">
      <feOffset dy="4" in="SourceAlpha" result="shadowOffsetOuter1"/>
      <feGaussianBlur stdDeviation="5.5" in="shadowOffsetOuter1" result="shadowBlurOuter1"/>
      <feColorMatrix values="0 0 0 0 0.790142532 0 0 0 0 0.893348712 0 0 0 0 0.927508503 0 0 0 1 0" in="shadowBlurOuter1" result="shadowMatrixOuter1"/>
      <feMerge>
        <feMergeNode in="shadowMatrixOuter1"/>
        <feMergeNode in="SourceGraphic"/>
      </feMerge>
    </filter>
    <linearGradient x1="22.991%" y1="68.885%" x2="67.887%" y2="50%" id="b">
      <stop stop-color="#1CAAD9" offset="0%"/>
      <stop stop-color="#49CDF8" offset="100%"/>
    </linearGradient>
    <path id="c" d="M.141.371h65.18V77H.14z"/>
    <path d="M66.021 47.025L53.317 12.12l-15.571 5.667a2.365 2.365 0 0 1-3.027-1.41L29.052.803l-26.951 9.81c-.829.302-1.428.848-1.796 1.64a3.058 3.058 0 0 0-.101 2.428l18.093 49.713c.302.828.848 1.427 1.639 1.796a3.069 3.069 0 0 0 2.43.101l41.758-15.199a3.058 3.058 0 0 0 1.796-1.639 3.058 3.058 0 0 0 .101-2.429" id="e"/>
    <filter x="-27.9%" y="-22.1%" width="155.9%" height="156.3%" filterUnits="objectBoundingBox" id="d">
      <feOffset dy="4" in="SourceAlpha" result="shadowOffsetOuter1"/>
      <feGaussianBlur stdDeviation="5.5" in="shadowOffsetOuter1" result="shadowBlurOuter1"/>
      <feColorMatrix values="0 0 0 0 0.790142532 0 0 0 0 0.893348712 0 0 0 0 0.927508503 0 0 0 1 0" in="shadowBlurOuter1"/>
    </filter>
    <linearGradient x1="28.892%" y1="77.006%" x2="55.905%" y2="33.004%" id="f">
      <stop stop-color="#1CAAD9" offset="0%"/>
      <stop stop-color="#49CDF8" offset="100%"/>
    </linearGradient>
    <path d="M76.14 22.952l-23.28 4.105a3.373 3.373 0 0 1-3.904-2.733l-4.104-23.28L4.557 8.15c-1.24.22-2.216.838-2.93 1.858s-.962 2.15-.743 3.388l13.105 74.326c.218 1.24.838 2.215 1.858 2.93.255.178.517.327.785.447.806.362 1.674.46 2.603.296l62.434-11.008c1.239-.219 2.215-.838 2.929-1.858s.962-2.15.744-3.388L76.14 22.952z" id="h"/>
    <filter x="-21.9%" y="-16%" width="143.7%" height="140.9%" filterUnits="objectBoundingBox" id="g">
      <feOffset dy="4" in="SourceAlpha" result="shadowOffsetOuter1"/>
      <feGaussianBlur stdDeviation="5.5" in="shadowOffsetOuter1" result="shadowBlurOuter1"/>
      <feColorMatrix values="0 0 0 0 0.790142532 0 0 0 0 0.893348712 0 0 0 0 0.927508503 0 0 0 1 0" in="shadowBlurOuter1"/>
    </filter>
    <linearGradient x1="19.281%" y1="85.659%" x2="55.367%" y2="25.03%" id="i">
      <stop stop-color="#1CAAD9" offset="0%"/>
      <stop stop-color="#49CDF8" offset="100%"/>
    </linearGradient>
    <path d="M57.828 32.731l4.277-24.256L20.12 1.072a4.712 4.712 0 0 0-1.85.023 4.655 4.655 0 0 0-1.68.752c-1.063.744-1.708 1.761-1.936 3.052L1 82.341c-.228 1.291.031 2.468.775 3.531.744 1.062 1.762 1.708 3.052 1.935l65.052 11.471c1.291.227 2.468-.03 3.53-.776 1.064-.744 1.708-1.76 1.936-3.05l9.588-54.377-24.256-4.278a3.514 3.514 0 0 1-2.848-4.066" id="k"/>
    <filter x="-22%" y="-14.7%" width="144%" height="137.6%" filterUnits="objectBoundingBox" id="j">
      <feOffset dy="4" in="SourceAlpha" result="shadowOffsetOuter1"/>
      <feGaussianBlur stdDeviation="5.5" in="shadowOffsetOuter1" result="shadowBlurOuter1"/>
      <feColorMatrix values="0 0 0 0 0.790142532 0 0 0 0 0.893348712 0 0 0 0 0.927508503 0 0 0 1 0" in="shadowBlurOuter1"/>
    </filter>
    <linearGradient x1="14.341%" y1="78.77%" x2="67.375%" y2="46.764%" id="l">
      <stop stop-color="#1CAAD9" offset="0%"/>
      <stop stop-color="#49CDF8" offset="100%"/>
    </linearGradient>
    <path d="M58.954 30.885V.518H6.392c-.808 0-1.556.14-2.242.424a5.75 5.75 0 0 0-1.879 1.272A5.75 5.75 0 0 0 1 4.093a5.828 5.828 0 0 0-.424 2.242v96.953c0 .405.035.793.106 1.166.07.374.176.733.318 1.077a5.742 5.742 0 0 0 1.272 1.877 5.722 5.722 0 0 0 1.88 1.273 5.825 5.825 0 0 0 2.241.425h81.441c1.212 0 2.287-.32 3.226-.955.313-.212.612-.46.894-.743.85-.847 1.38-1.833 1.591-2.954.07-.373.105-.761.105-1.166V35.213H63.282a4.332 4.332 0 0 1-4.328-4.328" id="n"/>
    <filter x="-19.9%" y="-13.4%" width="139.8%" height="134.1%" filterUnits="objectBoundingBox" id="m">
      <feOffset dy="4" in="SourceAlpha" result="shadowOffsetOuter1"/>
      <feGaussianBlur stdDeviation="5.5" in="shadowOffsetOuter1" result="shadowBlurOuter1"/>
      <feColorMatrix values="0 0 0 0 0.790142532 0 0 0 0 0.893348712 0 0 0 0 0.927508503 0 0 0 1 0" in="shadowBlurOuter1"/>
    </filter>
    <linearGradient x1="0%" y1="100%" x2="62.395%" y2="41.332%" id="o">
      <stop stop-color="#1CAAD9" offset="0%"/>
      <stop stop-color="#49CDF8" offset="100%"/>
    </linearGradient>
    <path d="M272.975 8.487a2.486 2.486 0 1 1-4.975 0 2.487 2.487 0 0 1 4.975 0" id="q"/>
    <filter x="-371.9%" y="-291.5%" width="843.7%" height="843.9%" filterUnits="objectBoundingBox" id="p">
      <feOffset dy="4" in="SourceAlpha" result="shadowOffsetOuter1"/>
      <feGaussianBlur stdDeviation="5.5" in="shadowOffsetOuter1" result="shadowBlurOuter1"/>
      <feColorMatrix values="0 0 0 0 0.790142532 0 0 0 0 0.893348712 0 0 0 0 0.927508503 0 0 0 1 0" in="shadowBlurOuter1"/>
    </filter>
    <path d="M369.975 71.487a2.486 2.486 0 1 1-4.975 0 2.487 2.487 0 0 1 4.975 0" id="s"/>
    <filter x="-371.9%" y="-291.5%" width="843.7%" height="843.9%" filterUnits="objectBoundingBox" id="r">
      <feOffset dy="4" in="SourceAlpha" result="shadowOffsetOuter1"/>
      <feGaussianBlur stdDeviation="5.5" in="shadowOffsetOuter1" result="shadowBlurOuter1"/>
      <feColorMatrix values="0 0 0 0 0.790142532 0 0 0 0 0.893348712 0 0 0 0 0.927508503 0 0 0 1 0" in="shadowBlurOuter1"/>
    </filter>
    <path d="M169.487 17.974a2.486 2.486 0 1 1-.001-4.973 2.486 2.486 0 0 1 .001 4.973z" id="u"/>
    <filter x="-371.9%" y="-291.5%" width="843.9%" height="843.9%" filterUnits="objectBoundingBox" id="t">
      <feOffset dy="4" in="SourceAlpha" result="shadowOffsetOuter1"/>
      <feGaussianBlur stdDeviation="5.5" in="shadowOffsetOuter1" result="shadowBlurOuter1"/>
      <feColorMatrix values="0 0 0 0 0.790142532 0 0 0 0 0.893348712 0 0 0 0 0.927508503 0 0 0 1 0" in="shadowBlurOuter1"/>
    </filter>
    <path d="M23.487 157.974a2.486 2.486 0 1 1-.001-4.973 2.486 2.486 0 0 1 .001 4.973z" id="w"/>
    <filter x="-371.9%" y="-291.5%" width="843.9%" height="843.9%" filterUnits="objectBoundingBox" id="v">
      <feOffset dy="4" in="SourceAlpha" result="shadowOffsetOuter1"/>
      <feGaussianBlur stdDeviation="5.5" in="shadowOffsetOuter1" result="shadowBlurOuter1"/>
      <feColorMatrix values="0 0 0 0 0.790142532 0 0 0 0 0.893348712 0 0 0 0 0.927508503 0 0 0 1 0" in="shadowBlurOuter1"/>
    </filter>
    <path d="M101.324 21.162a2.162 2.162 0 1 1-4.324 0 2.162 2.162 0 0 1 4.324 0" id="y"/>
    <filter x="-427.8%" y="-335.3%" width="955.7%" height="955.7%" filterUnits="objectBoundingBox" id="x">
      <feOffset dy="4" in="SourceAlpha" result="shadowOffsetOuter1"/>
      <feGaussianBlur stdDeviation="5.5" in="shadowOffsetOuter1" result="shadowBlurOuter1"/>
      <feColorMatrix values="0 0 0 0 0.790142532 0 0 0 0 0.893348712 0 0 0 0 0.927508503 0 0 0 1 0" in="shadowBlurOuter1"/>
    </filter>
    <path d="M351.324 13.162a2.162 2.162 0 1 1-4.324 0 2.162 2.162 0 0 1 4.324 0" id="A"/>
    <filter x="-427.8%" y="-335.3%" width="955.7%" height="955.7%" filterUnits="objectBoundingBox" id="z">
      <feOffset dy="4" in="SourceAlpha" result="shadowOffsetOuter1"/>
      <feGaussianBlur stdDeviation="5.5" in="shadowOffsetOuter1" result="shadowBlurOuter1"/>
      <feColorMatrix values="0 0 0 0 0.790142532 0 0 0 0 0.893348712 0 0 0 0 0.927508503 0 0 0 1 0" in="shadowBlurOuter1"/>
    </filter>
    <path d="M74.078 62.114a1.638 1.638 0 1 1-3.275 0 1.638 1.638 0 0 1 3.275 0" id="C"/>
    <filter x="-564.9%" y="-442.6%" width="1229.8%" height="1229.4%" filterUnits="objectBoundingBox" id="B">
      <feOffset dy="4" in="SourceAlpha" result="shadowOffsetOuter1"/>
      <feGaussianBlur stdDeviation="5.5" in="shadowOffsetOuter1" result="shadowBlurOuter1"/>
      <feColorMatrix values="0 0 0 0 0.790142532 0 0 0 0 0.893348712 0 0 0 0 0.927508503 0 0 0 1 0" in="shadowBlurOuter1"/>
    </filter>
    <path d="M316.532 49.767a2.766 2.766 0 1 1-5.533.001 2.766 2.766 0 0 1 5.533-.001" id="E"/>
    <filter x="-334.4%" y="-262%" width="768.8%" height="768.6%" filterUnits="objectBoundingBox" id="D">
      <feOffset dy="4" in="SourceAlpha" result="shadowOffsetOuter1"/>
      <feGaussianBlur stdDeviation="5.5" in="shadowOffsetOuter1" result="shadowBlurOuter1"/>
      <feColorMatrix values="0 0 0 0 0.790142532 0 0 0 0 0.893348712 0 0 0 0 0.927508503 0 0 0 1 0" in="shadowBlurOuter1"/>
    </filter>
    <path d="M356.532 138.767a2.766 2.766 0 1 1-5.533.001 2.766 2.766 0 0 1 5.533-.001" id="G"/>
    <filter x="-334.4%" y="-262%" width="768.8%" height="768.6%" filterUnits="objectBoundingBox" id="F">
      <feOffset dy="4" in="SourceAlpha" result="shadowOffsetOuter1"/>
      <feGaussianBlur stdDeviation="5.5" in="shadowOffsetOuter1" result="shadowBlurOuter1"/>
      <feColorMatrix values="0 0 0 0 0.790142532 0 0 0 0 0.893348712 0 0 0 0 0.927508503 0 0 0 1 0" in="shadowBlurOuter1"/>
    </filter>
    <path d="M237.458 41.729a3.729 3.729 0 1 1-7.458 0 3.729 3.729 0 0 1 7.458 0" id="I"/>
    <filter x="-248.1%" y="-194.4%" width="596.1%" height="596.1%" filterUnits="objectBoundingBox" id="H">
      <feOffset dy="4" in="SourceAlpha" result="shadowOffsetOuter1"/>
      <feGaussianBlur stdDeviation="5.5" in="shadowOffsetOuter1" result="shadowBlurOuter1"/>
      <feColorMatrix values="0 0 0 0 0.790142532 0 0 0 0 0.893348712 0 0 0 0 0.927508503 0 0 0 1 0" in="shadowBlurOuter1"/>
    </filter>
    <path d="M7.458 77.729a3.729 3.729 0 1 1-7.458 0 3.729 3.729 0 0 1 7.458 0" id="K"/>
    <filter x="-248.1%" y="-194.4%" width="596.1%" height="596.1%" filterUnits="objectBoundingBox" id="J">
      <feOffset dy="4" in="SourceAlpha" result="shadowOffsetOuter1"/>
      <feGaussianBlur stdDeviation="5.5" in="shadowOffsetOuter1" result="shadowBlurOuter1"/>
      <feColorMatrix values="0 0 0 0 0.790142532 0 0 0 0 0.893348712 0 0 0 0 0.927508503 0 0 0 1 0" in="shadowBlurOuter1"/>
    </filter>
    <path id="L" d="M.253.646h7.458v7.458H.253z"/>
    <path d="M7.711 4.375a3.728 3.728 0 1 1-7.458 0 3.729 3.729 0 1 1 7.458 0" id="O"/>
    <filter x="-248.1%" y="-194.4%" width="596.1%" height="596.1%" filterUnits="objectBoundingBox" id="N">
      <feOffset dy="4" in="SourceAlpha" result="shadowOffsetOuter1"/>
      <feGaussianBlur stdDeviation="5.5" in="shadowOffsetOuter1" result="shadowBlurOuter1"/>
      <feColorMatrix values="0 0 0 0 0.790142532 0 0 0 0 0.893348712 0 0 0 0 0.927508503 0 0 0 1 0" in="shadowBlurOuter1"/>
    </filter>
  </defs>
  <g fill="none" fill-rule="evenodd">
    <path d="M0-8h400v192H0z"/>
    <g filter="url(#a)" transform="translate(276 96.354)">
      <path d="M48.581 31.127a2.542 2.542 0 0 1-1.517-3.254l6.092-16.738L24.186.59c-.892-.323-1.763-.288-2.613.11-.85.396-1.438 1.04-1.763 1.93L.36 56.07a3.694 3.694 0 0 0-.175.664c-.073.441-.054.875.054 1.306.054.215.131.43.23.642.396.85 1.04 1.437 1.93 1.761l44.89 16.34c.223.08.444.138.665.174.66.11 1.31.014 1.947-.284a3.5 3.5 0 0 0 .588-.344c.54-.389.931-.919 1.174-1.587L65.32 37.22l-16.739-6.092z" fill="#FEFEFE"/>
      <path d="M47.065 27.873a2.542 2.542 0 0 0 1.517 3.255l16.738 6.091.348-.953c.161-.447.276-.934.342-1.465a9.985 9.985 0 0 0 .06-1.718 12.072 12.072 0 0 0-.074-.889 8.315 8.315 0 0 0-.34-1.56 5.982 5.982 0 0 0-.267-.674l-6.627-14.214c-.397-.85-1.048-1.691-1.956-2.526-.905-.835-1.804-1.414-2.695-1.739l-.954-.345-6.092 16.738z" fill="url(#b)"/>
      <path d="M26.594 48.573c-.336.923-.933 1.528-1.79 1.818-.857.289-1.877.219-3.061-.212-1.09-.396-1.98-.953-2.67-1.668l.734-2.012c.577.558 1.082.987 1.514 1.287.43.299.845.52 1.242.665.474.173.872.215 1.192.126.32-.09.546-.314.676-.672a.953.953 0 0 0 .027-.596 2.026 2.026 0 0 0-.328-.631c-.165-.222-.522-.614-1.073-1.173-.518-.521-.883-.973-1.097-1.357a3.378 3.378 0 0 1-.404-1.216c-.057-.426.003-.88.178-1.36.329-.903.893-1.503 1.695-1.797.8-.294 1.74-.244 2.822.15.53.193 1.016.44 1.45.74.439.303.878.663 1.322 1.083l-1.312 1.43c-.464-.422-.858-.743-1.181-.96a4.686 4.686 0 0 0-1.004-.516c-.411-.15-.76-.168-1.048-.057a1.008 1.008 0 0 0-.601.628 1.001 1.001 0 0 0-.05.549c.038.174.128.362.274.565.144.204.515.609 1.112 1.217.789.804 1.277 1.5 1.464 2.088.188.588.159 1.215-.083 1.88M31.355 53.519l-2.166-.788 3.062-8.415-2.774-1.01.655-1.804 7.716 2.809-.655 1.804-2.776-1.01zM35.702 55.101l3.72-10.218 2.166.79L38.52 54.1l4.145 1.508-.65 1.79z" fill="#DDD"/>
    </g>
    <g transform="translate(56 106)">
      <use fill="#000" filter="url(#d)" xlink:href="#e"/>
      <use fill="#FFF" xlink:href="#e"/>
    </g>
    <path d="M34.719 16.376a2.365 2.365 0 0 0 3.027 1.411l15.57-5.667-.322-.888c-.302-.829-.84-1.665-1.617-2.508-.776-.843-1.56-1.45-2.35-1.819L35.804.74C35.013.371 34.044.16 32.9.108c-1.145-.052-2.132.073-2.96.373l-.888.324 5.667 15.571z" fill="url(#f)" transform="translate(56 106)"/>
    <path d="M90.296 151.923l-1.976.72 1.242-1.031.734.31zm-7.154-4.83l2.94-5.966 13.58-.04-10.38 8.61-6.14-2.603zm.347-7.611l1.902-.692-.339.687-1.563.005zm8.81 11.495l-1.305-.553 5.223-4.333-3.919 4.886zm7.321 3.104l-5.74-2.433 6.951-8.666-1.21 11.099zm-5.292-14.632l-7.43.023.725-1.472 6.705 1.449zm4.817-.65l-10.769-2.327 2.554-5.185 8.215 7.512zm-19.007-4.15l8.886-3.234-2.577 5.23-6.736 2.453.427-4.448zm8.711 23.923l-3.219-3.191 6.898-2.511 5.538 2.348-9.217 3.354zm13.89-18.6a.325.325 0 0 0-.007-.017l-.005-.012c0-.003-.002-.006-.004-.008v-.002l-.006-.014-.007-.015c0-.002 0-.003-.002-.005a.008.008 0 0 1-.002-.004l-.006-.01a.154.154 0 0 1-.008-.02l-.002-.002c0-.002-.002-.003-.003-.005l-.003-.004c0-.002 0-.003-.002-.004l-.01-.02-.01-.016c-.005-.006-.009-.011-.012-.017l-.013-.02-.01-.013-.015-.02v-.001l-.003-.003-.007-.008-.014-.017-.006-.007-.007-.008-.012-.012-.009-.01-.003-.003-.005-.005c0-.001 0-.002-.002-.003l-.004-.003c0-.002-.003-.003-.005-.005l-.01-.01-.004-.003-.002-.002-11.274-10.308-.007-.007-.005-.005v-.001l-.013-.01c-.006-.005-.01-.01-.017-.014l-.004-.004-.01-.008a.133.133 0 0 0-.016-.012.055.055 0 0 1-.008-.006l-.009-.006-.014-.011-.013-.008c0-.002-.003-.003-.005-.004l-.003-.002-.01-.006-.03-.017-.005-.003a.231.231 0 0 0-.035-.018.326.326 0 0 0-.039-.018v-.001l-.037-.015-.003-.001a.393.393 0 0 0-.04-.013l-.026-.008-.017-.004-.017-.004-.024-.006h-.002v-.001l-.008-.001-.03-.005-.01-.002-.029-.003-.015-.001-.024-.001-.02-.001-.02-.001h-.039c-.01 0-.018.002-.027.003h-.013l-.027.003a.05.05 0 0 0-.013.002.187.187 0 0 0-.025.004c-.005 0-.01 0-.015.002h-.002l-.02.005c-.006 0-.01.002-.016.004h-.006l-.015.005c-.002 0-.004 0-.006.002-.004 0-.007.002-.01.003-.004 0-.007.002-.01.003l-.01.003-.017.005c-.005 0-.009.003-.014.005h-.003l-11.304 4.116a.658.658 0 0 0-.083.034c-.002 0-.003.002-.005.003l-.03.015a.843.843 0 0 0-.215.168l-.002.003-.02.024-.007.008-.015.018a.09.09 0 0 0-.01.016c-.005.004-.008.007-.01.012l-.015.022a.03.03 0 0 0-.005.007l-.017.028-.002.002a.852.852 0 0 0-.078.18v.004c-.005.01-.007.022-.01.033a.797.797 0 0 0-.022.128l-.6 6.257a.735.735 0 0 0-.004.133v.009l.003.03.002.02.002.019.006.03.001.009a.815.815 0 0 0 .086.235l.001.002a.812.812 0 0 0 .139.184l.026.025.005.005.021.018.01.009.017.013a.066.066 0 0 0 .017.012.044.044 0 0 0 .011.008l.023.017c.002 0 .004.002.006.004.01.006.02.01.03.017a.849.849 0 0 0 .429.114l5.463-.015-2.964 6.016a.124.124 0 0 0-.01.02l-.008.02v.002l-.006.01-.01.029-.004.009-.01.03a.353.353 0 0 0-.011.04c0 .004-.002.008-.003.01l-.007.03a.05.05 0 0 1-.002.013l-.005.027c0 .006 0 .01-.002.015 0 .009-.002.017-.003.025v.018c-.002.007-.002.015-.003.022v.08l.001.023.002.016.002.024.002.016.004.024.002.015.005.024.004.015.005.022.005.017.006.02.006.018.007.018.007.019.007.016.01.022.006.013a.147.147 0 0 0 .01.022l.007.012.012.023a.075.075 0 0 1 .007.012l.014.022c.003.004.005.008.008.01l.015.023.008.01.016.022.01.01c.004.008.01.014.015.02a.12.12 0 0 1 .011.013c.005.005.011.01.016.017l.014.014.014.014a.259.259 0 0 1 .03.027l.021.016a.461.461 0 0 0 .034.027l.01.007.026.017.008.006.027.016c.004.002.006.004.01.004l.025.014.011.006h.002c.007.004.014.008.021.01l.02.01 6.157 2.61-4.247 3.524s-.002 0-.003.002a.877.877 0 0 0-.209.257.776.776 0 0 0-.057.142v.002l-.009.029c0 .004-.002.007-.003.01l-.004.02-.004.022a.058.058 0 0 0-.002.01l-.005.03v.003a.854.854 0 0 0 .051.42l.003.008.005.012.011.026h.001l.003.007.001.003c.006.01.011.023.017.032l.005.01.015.025.01.016a.46.46 0 0 0 .033.048l.022.028.002.003c.015.018.03.036.046.05l.003.004.016.017 4.505 4.468c.015.015.03.029.046.042.002 0 .003.003.005.005l.04.03.006.006.041.028a.108.108 0 0 0 .018.01c.008.006.016.01.025.015l.031.017c.01.005.018.01.027.013l.024.01.023.01.022.009.043.013.018.005c.012.003.024.007.037.009a.434.434 0 0 0 .064.012h.003l.053.006h.003c.037.003.075.003.112 0h.003a.68.68 0 0 0 .11-.015l.012-.003.035-.01.02-.005a.171.171 0 0 0 .03-.01l.017-.004a.049.049 0 0 1 .007-.003l11.668-4.247.006-.002.018-.007.021-.01a.049.049 0 0 1 .007-.002l.02-.008.03-.015.013-.007a.76.76 0 0 0 .093-.06.71.71 0 0 0 .08-.064l.013-.012.016-.016.014-.016.004-.004.01-.01a.196.196 0 0 0 .017-.021l.008-.01.001-.001.016-.021a.07.07 0 0 1 .008-.01l.008-.012a.088.088 0 0 0 .006-.01l.001-.001.008-.012.011-.018a.315.315 0 0 1 .012-.02.114.114 0 0 0 .01-.018l.006-.012a.229.229 0 0 0 .01-.016l.003-.008.01-.021a.16.16 0 0 0 .01-.023.122.122 0 0 1 .006-.017l.006-.016.003-.008.006-.018a.093.093 0 0 1 .004-.013l.005-.02.002-.006.003-.008.001-.005.003-.013a.405.405 0 0 0 .007-.037l.001-.005a.562.562 0 0 0 .01-.07l1.638-15.005.001-.01.001-.007v-.003l.001-.01v-.003-.001l.001-.017v-.004l.001-.006v-.01-.039-.031-.006c-.002-.008-.002-.016-.003-.025v-.006-.002l-.002-.005c0-.01-.002-.017-.003-.026v-.01a.03.03 0 0 1-.003-.01l-.003-.02a.03.03 0 0 1-.002-.01l-.003-.013c0-.005-.003-.01-.004-.015v-.005c0-.001 0-.002-.002-.002v-.003a.154.154 0 0 1-.005-.017l-.003-.011v-.005l-.003-.006-.006-.02-.004-.01v-.002l-.003-.006z" fill="#DDD"/>
    <g transform="translate(96 76)">
      <use fill="#000" filter="url(#g)" xlink:href="#h"/>
      <use fill="#FFF" xlink:href="#h"/>
    </g>
    <path d="M48.956 24.324a3.373 3.373 0 0 0 3.903 2.733l23.281-4.105-.235-1.327a8.295 8.295 0 0 0-.225-.943c-.289-.955-.764-1.948-1.425-2.98-.88-1.379-1.832-2.424-2.852-3.139L54.354 2.626c-1.02-.715-2.328-1.25-3.923-1.608C48.835.661 47.417.592 46.18.81l-1.327.234 4.104 23.28z" fill="url(#i)" transform="translate(96 76)"/>
    <path fill="#DDD" d="M127.74 143.076l-2.966.523-2.505-14.21 8.145-1.437.436 2.47-5.18.912.645 3.665 4.821-.85.434 2.46-4.822.85zM137.622 134.95l.653 3.703 1.963-.347c.83-.146 1.414-.413 1.754-.799.34-.388.451-.909.336-1.563-.208-1.18-1.155-1.62-2.84-1.324l-1.866.33zm-.422-2.392l1.75-.308c.817-.145 1.385-.375 1.707-.693.321-.317.431-.767.328-1.35-.096-.544-.363-.9-.804-1.066-.44-.166-1.092-.173-1.954-.02l-1.584.278.557 3.16zm-4.006-5.096l4.423-.78c2.016-.356 3.53-.328 4.541.086 1.011.412 1.628 1.244 1.848 2.495.15.85.074 1.581-.23 2.196a2.417 2.417 0 0 1-1.416 1.261l.017.098c.937.042 1.652.303 2.15.783.494.482.823 1.178.984 2.092.228 1.296-.062 2.39-.87 3.28-.809.892-2.017 1.48-3.623 1.762l-5.318.938-2.506-14.21zM160.565 137.288l-3.44.607-4.254-4.793-2.357 5.958-3.227.57 3.422-8.16-5.627-6.105 3.325-.586 3.963 4.573 2.102-5.642 3.247-.573-3.219 7.834z"/>
    <g transform="translate(216 68)">
      <use fill="#000" filter="url(#j)" xlink:href="#k"/>
      <use fill="#FFF" xlink:href="#k"/>
    </g>
    <path d="M83.284 31.174L70.846 13.41c-.559-.797-1.311-1.553-2.258-2.27a15.827 15.827 0 0 0-1.011-.702c-1.076-.69-2.112-1.183-3.107-1.483a8.569 8.569 0 0 0-.982-.236l-1.383-.244-4.277 24.257a3.514 3.514 0 0 0 2.848 4.066l24.256 4.277.244-1.382c.227-1.291.155-2.768-.217-4.43-.372-1.663-.931-3.025-1.675-4.09z" fill="url(#l)" transform="translate(216 68)"/>
    <path d="M244.772 129.335c-.291 1.654-.197 2.955.283 3.903s1.345 1.532 2.594 1.752c2.506.442 4.052-1.002 4.639-4.33.588-3.336-.365-5.223-2.856-5.663-1.25-.22-2.264.035-3.048.763-.783.729-1.32 1.921-1.612 3.575m10.807 1.905c-.432 2.451-1.372 4.228-2.82 5.33-1.447 1.103-3.305 1.453-5.574 1.054-2.268-.4-3.894-1.366-4.878-2.896-.983-1.532-1.258-3.53-.823-5.994.434-2.464 1.376-4.239 2.824-5.325 1.447-1.084 3.31-1.426 5.585-1.024 2.275.401 3.9 1.362 4.875 2.885.974 1.522 1.244 3.512.81 5.97M261.615 133.307l-.68 3.859 2.045.36c.864.153 1.532.1 2.002-.157.471-.26.766-.73.886-1.411.217-1.23-.553-1.998-2.309-2.307l-1.944-.344zm.44-2.491l1.823.32c.85.15 1.49.128 1.918-.067.427-.197.695-.6.802-1.206.1-.568-.036-1.01-.408-1.33-.37-.32-1.007-.56-1.904-.717l-1.65-.291-.582 3.29zm-2.106-6.418l4.608.812c2.1.37 3.572.938 4.415 1.703.843.765 1.15 1.799.92 3.102-.156.885-.49 1.574-1.007 2.068a2.518 2.518 0 0 1-1.836.73l-.018.102c.901.375 1.51.886 1.824 1.534.314.646.387 1.446.22 2.398-.239 1.35-.913 2.317-2.023 2.9-1.108.586-2.499.73-4.174.435l-5.54-.977 2.611-14.807zM268.957 145.744c-.709-.125-1.313-.309-1.814-.55l.46-2.613c.517.23.998.385 1.444.464.688.121 1.219-.007 1.592-.382.373-.377.639-1.02.799-1.933l2.447-13.875 3.14.554-2.443 13.855c-.305 1.728-.932 2.975-1.882 3.741-.949.765-2.197 1.011-3.743.74" fill="#DDD"/>
    <g transform="translate(152 55)">
      <use fill="#000" filter="url(#m)" xlink:href="#n"/>
      <use fill="#FFF" xlink:href="#n"/>
    </g>
    <path d="M90.347 24.468a10.557 10.557 0 0 0-.817-.924L70.624 4.638c-1.131-1.131-2.666-2.101-4.605-2.908C64.079.92 62.3.518 60.684.518h-1.73v30.367a4.332 4.332 0 0 0 4.328 4.328H93.65v-1.731c0-1.617-.404-3.394-1.212-5.333-.606-1.454-1.303-2.681-2.09-3.681z" fill="url(#o)" transform="translate(152 55)"/>
    <path d="M215.055 136.955c-2.077 2.12-4.983 3.318-8.132 3.323-3.15.007-6.057-1.183-8.135-3.297a9.673 9.673 0 0 1-2.222-3.476 9.06 9.06 0 0 1-.511-3.882 9.203 9.203 0 0 1 1.115-3.657 10.114 10.114 0 0 1 2.472-2.939c2.018-1.646 4.588-2.536 7.278-2.539 2.692-.004 5.26.88 7.28 2.52a10.055 10.055 0 0 1 2.47 2.927 9.189 9.189 0 0 1 1.115 3.655 9.052 9.052 0 0 1-.51 3.882 9.72 9.72 0 0 1-2.22 3.483zm-25.905-3.728v.001c-.01-.669.136-1.784.136-1.784l-10.081 8.25c-1.761 1.423-4.13 1.422-5.244-.007-1.096-1.404-.532-3.624 1.208-4.958l.07-.052 18.474-14.179-10.351.02v-.006c-1.752-.007-2.9-1.19-2.572-2.616.323-1.398 1.945-2.508 3.632-2.509l.028.001 20.424-.023-6.7-5.449.004-.002c-1.042-.858-.911-2.213.263-3.032 1.158-.812 2.93-.815 3.987-.006l.04.033 16.064 12.336-.002.002a16.665 16.665 0 0 1 3.969 4.376 15.274 15.274 0 0 1 2.176 5.956c.154 1.093.192 2.19.106 3.281-.087 1.11-.3 2.214-.642 3.304-.676 2.156-1.818 4.155-3.41 5.92-1.633 1.81-3.644 3.266-5.967 4.306a19.262 19.262 0 0 1-7.84 1.657 19.207 19.207 0 0 1-7.841-1.63 17.647 17.647 0 0 1-5.97-4.287c-1.594-1.759-2.74-3.754-3.413-5.908-.32-1.022-.537-2.325-.548-2.995zm11.058-3.468c-.098 1.762.609 3.4 1.853 4.612 1.265 1.236 3.071 2.01 5.089 2.01 2.019 0 3.823-.774 5.089-2.01 1.243-1.213 1.95-2.85 1.854-4.613-.096-1.713-.937-3.225-2.202-4.296-1.245-1.053-2.916-1.694-4.741-1.694-1.825 0-3.497.64-4.741 1.694-1.265 1.07-2.105 2.583-2.201 4.297z" fill="#DDD"/>
    <g transform="translate(11 1)">
      <use fill="#000" filter="url(#p)" xlink:href="#q"/>
      <use fill="#FF9D3F" xlink:href="#q"/>
    </g>
    <g transform="translate(11 1)">
      <use fill="#000" filter="url(#r)" xlink:href="#s"/>
      <use fill="#FF9D3F" xlink:href="#s"/>
    </g>
    <g transform="translate(11 1)">
      <use fill="#000" filter="url(#t)" xlink:href="#u"/>
      <use fill="#E7E7E7" xlink:href="#u"/>
    </g>
    <g transform="translate(11 1)">
      <use fill="#000" filter="url(#v)" xlink:href="#w"/>
      <use fill="#E7E7E7" xlink:href="#w"/>
    </g>
    <g transform="translate(11 1)">
      <use fill="#000" filter="url(#x)" xlink:href="#y"/>
      <use fill="#1CAAD9" xlink:href="#y"/>
    </g>
    <g transform="translate(11 1)">
      <use fill="#000" filter="url(#z)" xlink:href="#A"/>
      <use fill="#1CAAD9" xlink:href="#A"/>
    </g>
    <g transform="translate(11 1)">
      <use fill="#000" filter="url(#B)" xlink:href="#C"/>
      <use fill="#E7E7E7" xlink:href="#C"/>
    </g>
    <g transform="translate(11 1)">
      <use fill="#000" filter="url(#D)" xlink:href="#E"/>
      <use fill="#E7E7E7" xlink:href="#E"/>
    </g>
    <g transform="translate(11 1)">
      <use fill="#000" filter="url(#F)" xlink:href="#G"/>
      <use fill="#E7E7E7" xlink:href="#G"/>
    </g>
    <g transform="translate(11 1)">
      <use fill="#000" filter="url(#H)" xlink:href="#I"/>
      <use fill="#1CAAD9" xlink:href="#I"/>
    </g>
    <g transform="translate(11 1)">
      <use fill="#000" filter="url(#J)" xlink:href="#K"/>
      <use fill="#1CAAD9" xlink:href="#K"/>
    </g>
    <g transform="translate(71 1.354)">
      <mask id="M" fill="#fff">
        <use xlink:href="#L"/>
      </mask>
      <g mask="url(#M)">
        <use fill="#000" filter="url(#N)" xlink:href="#O"/>
        <use fill="#FF9D3F" xlink:href="#O"/>
      </g>
    </g>
  </g>
</svg>
